<svg xmlns="http://www.w3.org/2000/svg" viewBox="0 0 640 480" role="img" aria-labelledby="title desc">
  <title id="title">UrbanCart ecommerce storefront</title>
  <desc id="desc">A sample ecommerce website screen with product cards and shopping interface.</desc>
  <rect width="640" height="480" fill="#ffffff"/>
  <rect x="40" y="40" width="560" height="400" fill="#101828"/>
  <rect x="76" y="78" width="488" height="54" fill="#ffffff"/>
  <circle cx="112" cy="105" r="11" fill="#00a6fb"/>
  <rect x="142" y="96" width="132" height="16" fill="#101828"/>
  <rect x="408" y="93" width="44" height="20" fill="#00a6fb"/>
  <rect x="468" y="93" width="58" height="20" fill="#101828"/>
  <rect x="76" y="162" width="210" height="224" fill="#ffffff"/>
  <rect x="102" y="192" width="158" height="86" fill="#00a6fb"/>
  <rect x="102" y="304" width="128" height="16" fill="#101828"/>
  <rect x="102" y="334" width="82" height="16" fill="#00a6fb"/>
  <rect x="314" y="162" width="250" height="92" fill="#ffffff"/>
  <rect x="338" y="188" width="74" height="40" fill="#00a6fb"/>
  <rect x="432" y="190" width="98" height="14" fill="#101828"/>
  <rect x="432" y="216" width="72" height="12" fill="#101828"/>
  <rect x="314" y="282" width="250" height="104" fill="#ffffff"/>
  <rect x="338" y="312" width="54" height="44" fill="#00a6fb"/>
  <rect x="412" y="314" width="118" height="14" fill="#101828"/>
  <rect x="412" y="342" width="76" height="12" fill="#101828"/>
</svg>
